<?xml version="1.0" standalone="no"?>
<!DOCTYPE svg PUBLIC "-//W3C//DTD SVG 1.1//EN" "http://www.w3.org/Graphics/SVG/1.1/DTD/svg11.dtd">
<svg t="1518415049537" class="icon" style="" viewBox="0 0 1024 1024" version="1.1" xmlns="http://www.w3.org/2000/svg" p-id="9625" xmlns:xlink="http://www.w3.org/1999/xlink" width="200" height="200">
	<defs>
		<style type="text/css">
		</style>
	</defs>
	<path d="M928.861091 620.544l-766.696727-93.556364c-21.876364-2.653091-39.144727-16.989091-45.754182-35.421091L42.309818 397.451636C29.044364 380.555636 31.976727 356.258909 48.919273 343.086545s41.425455-10.24 54.690909 6.656l78.987636 100.445091 259.165091 1.536L235.008 188.928C216.250182 165.003636 219.275636 131.444364 241.850182 113.850182c22.574545-17.547636 56.133818-12.427636 74.891636 11.450182l359.656727 327.819636 168.122182 0.977455c86.341818 10.565818 148.759273 93.556364 145.314909 121.856C986.391273 604.253091 959.115636 624.221091 928.861091 620.544L928.861091 620.544zM195.723636 843.077818l675.048727 0c21.504 0 38.958545 17.361455 38.958545 38.772364 0 21.364364-17.454545 38.725818-38.958545 38.725818L195.723636 920.576c-21.504 0-38.958545-17.361455-38.958545-38.725818C156.765091 860.439273 174.219636 843.077818 195.723636 843.077818L195.723636 843.077818zM195.723636 843.077818" p-id="9626">
	</path>
</svg>
