<!-- 航班动态图标 -->
<?xml version="1.0" encoding="iso-8859-1"?>
<!-- Generator: Adobe Illustrator 18.1.1, SVG Export Plug-In . SVG Version: 6.00 Build 0) -->
<svg version="1.1" id="Capa_1" xmlns="http://www.w3.org/2000/svg" xmlns:xlink="http://www.w3.org/1999/xlink" x="0px" y="0px" viewBox="0 0 612.002 612.002" style="enable-background:new 0 0 612.002 612.002;" xml:space="preserve">
	<path d="M612.002,538.622c0,8.296-6.722,15.018-15.018,15.018H39.601c-8.296,0-15.018-6.722-15.018-15.018
		c0-8.296,6.722-15.018,15.018-15.018h557.384C605.28,523.604,612.002,530.326,612.002,538.622z M176.408,123.253l55.868,38.139
		l137.946-54.769l-142.91-26.311c-2.769-0.514-5.638-0.228-8.263,0.811L179.33,96.895c-5.16,2.051-8.77,6.782-9.383,12.302
		C169.335,114.717,171.818,120.121,176.408,123.253z M578.396,81.772c-6.737-14.219-21.532-23.409-37.688-23.409
		c-5.454,0-10.789,1.021-15.85,3.031l-126.821,50.354l-0.018-0.003l-150.78,59.863l0.012,0.006L92.808,232.936l-36.466-19.003
		c-14.351-7.485-31.81-8.386-46.867-2.403c-4.49,1.784-7.845,5.617-9.023,10.302c-1.177,4.688-0.027,9.653,3.091,13.342
		l54.823,64.93l-11.63,43.248c-1.475,5.487,0.27,11.335,4.511,15.114c4.244,3.778,10.254,4.842,15.534,2.745l19.343-7.683
		c2.415-0.961,4.541-2.532,6.169-4.559l31.459-39.184l152.6-60.581l6.307,150.404c0.204,4.86,2.751,9.323,6.833,11.966
		c2.466,1.601,5.31,2.421,8.173,2.421c1.874,0,3.754-0.348,5.542-1.06l42.989-17.069c3.854-1.532,6.902-4.583,8.428-8.44
		L433.99,186.61l122.285-48.552c10.602-4.208,19.081-12.711,23.262-23.331C583.709,104.121,583.294,92.104,578.396,81.772z" />
</svg>
