<?xml version="1.0" standalone="no"?>
<!DOCTYPE svg PUBLIC "-//W3C//DTD SVG 1.1//EN" "http://www.w3.org/Graphics/SVG/1.1/DTD/svg11.dtd">
<svg t="1518340855526" class="icon" style="" viewBox="0 0 1024 1024" version="1.1" xmlns="http://www.w3.org/2000/svg" p-id="6028" xmlns:xlink="http://www.w3.org/1999/xlink" width="200" height="200">
	<defs>
		<style type="text/css">
		</style>
	</defs>
	<path d="M62.385351 714.233957l244.450455 0 0 244.451478L62.385351 958.685435 62.385351 714.233957 62.385351 714.233957zM62.385351 714.233957" p-id="6029">
	</path>
	<path d="M388.321678 388.299677l244.449431 0 0 244.450455L388.321678 632.750131 388.321678 388.299677 388.321678 388.299677zM388.321678 388.299677" p-id="6030">
	</path>
	<path d="M62.385351 388.299677l244.450455 0 0 244.450455L62.385351 632.750131 62.385351 388.299677 62.385351 388.299677zM62.385351 388.299677" p-id="6031">
	</path>
	<path d="M388.321678 62.365396l244.449431 0 0 244.450455L388.321678 306.815851 388.321678 62.365396 388.321678 62.365396zM388.321678 62.365396" p-id="6032">
	</path>
	<path d="M62.385351 62.365396l244.450455 0 0 244.450455L62.385351 306.815851 62.385351 62.365396 62.385351 62.365396zM62.385351 62.365396" p-id="6033">
	</path>
	<path d="M714.253912 714.233957l244.451478 0 0 244.451478L714.253912 958.685435 714.253912 714.233957 714.253912 714.233957zM714.253912 714.233957" p-id="6034">
	</path>
	<path d="M388.321678 714.233957l244.449431 0 0 244.451478L388.321678 958.685435 388.321678 714.233957 388.321678 714.233957zM388.321678 714.233957" p-id="6035">
	</path>
	<path d="M714.253912 62.365396l244.451478 0 0 244.450455L714.253912 306.815851 714.253912 62.365396 714.253912 62.365396zM714.253912 62.365396" p-id="6036">
	</path>
	<path d="M714.253912 388.299677l244.451478 0 0 244.450455L714.253912 632.750131 714.253912 388.299677 714.253912 388.299677zM714.253912 388.299677" p-id="6037">
	</path>
</svg>
