<?xml version="1.0" standalone="no"?>
<!DOCTYPE svg PUBLIC "-//W3C//DTD SVG 1.1//EN" "http://www.w3.org/Graphics/SVG/1.1/DTD/svg11.dtd">
<svg t="1518430930960" class="icon" style="" viewBox="0 0 1024 1024" version="1.1" xmlns="http://www.w3.org/2000/svg" p-id="13680" xmlns:xlink="http://www.w3.org/1999/xlink" width="200" height="200">
	<defs>
		<style type="text/css">
		</style>
	</defs>
	<path d="M934.17984 391.64416l-216.3712 81.73568-272.8192-146.0736c-32.3584-14.59712-33.44896-17.39264-56.19712-8.7552L291.7376 355.2768c-30.1568 11.19232-15.81056 21.65248 30.2848 71.76192l136.59136 144.256-343.35744 129.65376c34.18112 5.22752 242.04288 21.0432 289.2288 3.28704l566.79936-214.0672c27.24352-10.21952 40.86784-40.6272 30.64832-67.87072-10.2144-27.24864-40.62208-40.99072-67.74784-30.65344zM285.2864 615.08096L169.86112 555.1104c-34.176-18.24768-47.43168-18.1248-98.51904 1.21856l-52.66432 19.9424 99.7376 101.92896 166.87616-63.1296z" p-id="13681">
	</path>
</svg>
