<?xml version="1.0" encoding="iso-8859-1"?>
<!-- Generator: Adobe Illustrator 19.0.0, SVG Export Plug-In . SVG Version: 6.00 Build 0) -->
<svg version="1.1" id="Layer_1" xmlns="http://www.w3.org/2000/svg" xmlns:xlink="http://www.w3.org/1999/xlink" x="0px" y="0px" viewBox="0 0 511.999 511.999" style="enable-background:new 0 0 511.999 511.999;" xml:space="preserve">
	<path d="M508.483,249.1L320.75,112.567c-1.485-1.084-3.251-1.63-5.018-1.63c-1.323,0-2.645,0.307-3.874,0.93
				c-2.859,1.451-4.659,4.395-4.659,7.603v85.333h-93.867c-4.719,0-8.533,3.814-8.533,8.533v85.333c0,4.71,3.814,8.533,8.533,8.533
				h93.867v85.333c0,3.208,1.801,6.144,4.659,7.595c2.85,1.459,6.289,1.186,8.892-0.7l187.733-136.533
				c2.21-1.604,3.516-4.164,3.516-6.895C511.999,253.264,510.694,250.704,508.483,249.1z" />
	<path d="M162.133,204.8c-14.114,0-25.6,11.486-25.6,25.6v51.2c0,14.114,11.486,25.6,25.6,25.6s25.6-11.486,25.6-25.6v-51.2
				C187.733,216.286,176.247,204.8,162.133,204.8z" />
	<path d="M93.867,204.8c-14.114,0-25.6,11.486-25.6,25.6v51.2c0,14.114,11.486,25.6,25.6,25.6s25.6-11.486,25.6-25.6v-51.2
				C119.467,216.286,107.981,204.8,93.867,204.8z" />
	<path d="M25.6,204.8C11.486,204.8,0,216.286,0,230.4v51.2c0,14.114,11.486,25.6,25.6,25.6s25.6-11.486,25.6-25.6v-51.2
				C51.2,216.286,39.714,204.8,25.6,204.8z" />
</svg>
